<?xml version="1.0" encoding="UTF-8"?>
<!-- Generator: Adobe Illustrator 20.0.0, SVG Export Plug-In . SVG Version: 6.00 Build 0)  -->
<!DOCTYPE svg PUBLIC "-//W3C//DTD SVG 1.1//EN" "http://www.w3.org/Graphics/SVG/1.1/DTD/svg11.dtd">
<svg version="1.1" id="Layer_1" xmlns="http://www.w3.org/2000/svg" xmlns:xlink="http://www.w3.org/1999/xlink" x="0px" y="0px" viewBox="0 0 195.3 56" style="enable-background:new 0 0 195.3 56;" xml:space="preserve">
<style type="text/css">
	.st0{fill:#FFFFFF;}
</style>
<g id="Layer_1_1_">
</g>
<g id="Layer_2">
	<g>
		<g>
			<path class="st0" d="M195.3,50.4c0,3.1-2.5,5.6-5.7,5.6H5.7C2.5,56,0,53.5,0,50.4V5.7C0,2.5,2.5,0,5.7,0h183.9     c3.1,0,5.7,2.5,5.7,5.7V50.4L195.3,50.4z"/>
			<path d="M195.3,50.4c0,3.1-2.5,5.6-5.7,5.6H5.7C2.5,56,0,53.5,0,50.4V5.7C0,2.5,2.5,0,5.7,0h183.9c3.1,0,5.7,2.5,5.7,5.7V50.4     L195.3,50.4z"/>
			<path class="st0" d="M42.9,27.8c0-4.7,3.9-7,4-7.1c-2.2-3.2-5.7-3.7-6.8-3.7c-2.8-0.3-5.7,1.8-7.1,1.8c-1.5,0-3.8-1.7-6.2-1.7     c-3.1,0.1-6.1,1.9-7.7,4.7c-3.2,5.8-0.8,14.2,2.3,18.9c1.6,2.2,3.4,4.8,5.9,4.8c2.3-0.1,3.3-1.6,6.2-1.6s3.7,1.6,6.2,1.5     c2.5-0.1,4.2-2.2,5.7-4.6c1.9-2.6,2.5-5.2,2.6-5.3C47.9,35.3,43,33.4,42.9,27.8z"/>
			<path class="st0" d="M38.2,13.9c1.3-1.6,2.2-3.8,2-6C38.3,8,36,9.2,34.7,10.8c-1.2,1.4-2.2,3.6-2,5.8     C34.8,16.6,36.9,15.4,38.2,13.9z"/>
			<g>
				<path class="st0" d="M77.5,45h-3.3l-1.9-5.8H66L64.2,45H61l6.3-19.5h3.9L77.5,45z M71.7,36.7l-1.7-5.1c-0.2-0.5-0.5-1.8-1-3.7      l0,0c-0.2,0.8-0.5,2.1-0.9,3.7l-1.7,5.1H71.7z"/>
				<path class="st0" d="M93.6,37.7c0,2.3-0.7,4.3-2,5.7c-1.2,1.3-2.6,1.9-4.3,1.9c-1.9,0-3.2-0.7-4-2v7.4h-3.1V35.5      c0-1.5-0.1-3-0.1-4.6h2.6l0.2,2.2h0.1c1.1-1.7,2.6-2.5,4.8-2.5c1.7,0,3,0.7,4.1,2C93,33.8,93.6,35.6,93.6,37.7z M90.4,37.8      c0-1.4-0.3-2.4-1-3.4c-0.7-0.9-1.6-1.4-2.7-1.4c-0.8,0-1.5,0.3-2.2,0.8c-0.6,0.5-1.1,1.2-1.2,2.1c-0.1,0.4-0.2,0.7-0.2,1v2.3      c0,1.1,0.3,1.9,1,2.6c0.6,0.7,1.5,1.1,2.4,1.1c1.2,0,2.1-0.5,2.7-1.4C90.1,40.5,90.4,39.3,90.4,37.8z"/>
				<path class="st0" d="M109.8,37.7c0,2.3-0.7,4.3-2,5.7c-1.2,1.3-2.6,1.9-4.4,1.9c-1.9,0-3.2-0.7-4-2v7.4h-3.1V35.5      c0-1.5,0-3-0.1-4.6h2.7l0.2,2.2h0.1c1.1-1.7,2.6-2.5,4.8-2.5c1.7,0,3,0.7,4.2,2C109.2,33.8,109.8,35.6,109.8,37.7z M106.6,37.8      c0-1.4-0.3-2.4-0.9-3.4c-0.7-0.9-1.6-1.4-2.7-1.4c-0.8,0-1.5,0.3-2.1,0.8c-0.6,0.5-1.1,1.2-1.3,2.1c-0.1,0.4-0.1,0.7-0.1,1v2.3      c0,1.1,0.3,1.9,0.9,2.6c0.6,0.7,1.5,1.1,2.4,1.1c1.2,0,2.2-0.5,2.7-1.4C106.2,40.5,106.6,39.3,106.6,37.8z"/>
				<path class="st0" d="M127.8,39.5c0,1.7-0.6,3-1.8,4c-1.3,1.2-3,1.7-5.3,1.7c-2.2,0-3.8-0.4-5.1-1.2l0.7-2.6      c1.4,0.8,2.9,1.3,4.5,1.3c1.2,0,2.2-0.3,2.7-0.8c0.7-0.5,1-1.3,1-2.2c0-0.8-0.3-1.5-0.8-2c-0.5-0.6-1.5-1.1-2.7-1.5      c-3.4-1.3-5.1-3.1-5.1-5.6c0-1.6,0.6-2.9,1.8-3.9c1.2-1,2.8-1.6,4.8-1.6c1.8,0,3.2,0.3,4.4,1l-0.8,2.5c-1.1-0.6-2.3-0.9-3.7-0.9      c-1.1,0-2,0.3-2.5,0.8c-0.5,0.5-0.8,1.1-0.8,1.8c0,0.8,0.3,1.4,0.9,2c0.5,0.5,1.5,1,2.8,1.5c1.7,0.7,2.9,1.5,3.7,2.3      C127.4,36.9,127.8,38.1,127.8,39.5z"/>
				<path class="st0" d="M138.2,33.2h-3.4v6.8c0,1.8,0.6,2.6,1.9,2.6c0.6,0,1,0,1.4-0.1l0.1,2.3c-0.6,0.2-1.5,0.4-2.4,0.4      c-1.3,0-2.2-0.4-2.9-1.2s-1.1-2.1-1.1-3.8v-7.1h-2v-2.3h2.1v-2.5l3.1-1v3.5h3.4L138.2,33.2L138.2,33.2z"/>
				<path class="st0" d="M153.7,37.7c0,2.2-0.6,3.9-1.9,5.4s-3,2.2-5.2,2.2c-2.1,0-3.7-0.7-5-2.1c-1.2-1.4-1.9-3.1-1.9-5.2      c0-2.2,0.7-4,1.9-5.4c1.3-1.4,2.9-2.1,5.1-2.1c2.1,0,3.7,0.7,5,2.1C153.1,33.9,153.7,35.7,153.7,37.7z M150.5,37.8      c0-1.3-0.3-2.3-0.8-3.3c-0.7-1.2-1.6-1.7-2.8-1.7s-2.2,0.6-2.8,1.7c-0.6,1-0.9,2.1-0.9,3.4c0,1.3,0.3,2.4,0.9,3.3      c0.7,1.1,1.7,1.7,2.8,1.7c1.2,0,2.2-0.6,2.8-1.8C150.2,40.3,150.5,39.1,150.5,37.8z"/>
				<path class="st0" d="M163.9,33.6c-0.3-0.1-0.7-0.1-1-0.1c-1.1,0-2,0.4-2.5,1.3c-0.5,0.7-0.8,1.7-0.8,2.7V45h-3.1v-9.6      c0-1.7,0-3.1-0.1-4.4h2.7l0.1,2.7h0.1c0.3-1,0.9-1.7,1.6-2.2c0.7-0.5,1.5-0.8,2.2-0.8c0.3,0,0.6,0,0.8,0.1L163.9,33.6      L163.9,33.6z"/>
				<path class="st0" d="M177.9,37.2c0,0.6,0,1.1-0.1,1.4h-9.4c0,1.4,0.5,2.4,1.4,3.2c0.8,0.7,1.8,1,3,1c1.4,0,2.6-0.2,3.8-0.7      l0.5,2.2c-1.4,0.6-2.9,0.9-4.7,0.9c-2.2,0-3.9-0.7-5.2-2c-1.3-1.3-1.9-3-1.9-5.2c0-2.2,0.6-3.9,1.8-5.3c1.2-1.5,2.8-2.2,4.9-2.2      c2.1,0,3.5,0.8,4.6,2.2C177.5,34,177.9,35.5,177.9,37.2z M174.9,36.5c0-1-0.2-1.8-0.6-2.4c-0.6-0.9-1.4-1.3-2.5-1.3      c-1,0-1.9,0.4-2.4,1.3c-0.5,0.7-0.9,1.5-0.9,2.4H174.9L174.9,36.5z"/>
			</g>
			<g>
				<path class="st0" d="M70.3,18.5h-1.7l-0.9-2.8h-3.1l-0.9,2.8h-1.6l3.1-9.6h2L70.3,18.5z M67.4,14.5l-0.8-2.5      c-0.1-0.3-0.3-0.9-0.5-1.9l0,0c-0.1,0.4-0.3,1-0.5,1.9l-0.8,2.5H67.4z"/>
				<path class="st0" d="M78,11.5l-2.6,6.9h-1.5l-2.5-6.9H73l1.2,3.6c0.2,0.6,0.4,1.2,0.5,1.8l0,0c0.1-0.5,0.3-1.1,0.5-1.8l1.2-3.6      C76.3,11.5,78,11.5,78,11.5z"/>
				<path class="st0" d="M83.6,18.5l-0.1-0.8h-0.1c-0.5,0.7-1.2,1-2.1,1c-1.3,0-2.2-0.9-2.2-2.1c0-1.7,1.5-2.6,4-2.6v-0.1      c0-0.9-0.5-1.4-1.5-1.4c-0.7,0-1.3,0.2-1.8,0.5l-0.3-1c0.7-0.4,1.5-0.6,2.3-0.6c1.8,0,2.7,1,2.7,2.8v2.5c0,0.7,0,1.3,0.1,1.7      L83.6,18.5L83.6,18.5z M83.4,15c-1.7,0-2.5,0.4-2.5,1.4c0,0.7,0.4,1.1,1.1,1.1c0.8,0,1.5-0.6,1.5-1.4V15L83.4,15z"/>
				<path class="st0" d="M88.3,10.4c-0.5,0-0.9-0.4-0.9-0.9s0.4-0.9,1-0.9c0.5,0,1,0.4,1,0.9C89.2,10,88.8,10.4,88.3,10.4z M89,18.5      h-1.6v-6.9H89V18.5z"/>
				<path class="st0" d="M93.3,18.5h-1.6V8.3h1.6V18.5z"/>
				<path class="st0" d="M99.9,18.5l-0.1-0.8l0,0c-0.5,0.7-1.2,1-2.1,1c-1.3,0-2.2-0.9-2.2-2.1c0-1.7,1.5-2.6,4-2.6v-0.1      c0-0.9-0.5-1.4-1.5-1.4c-0.7,0-1.3,0.2-1.8,0.5l-0.3-1c0.6-0.4,1.5-0.6,2.3-0.6c1.8,0,2.7,1,2.7,2.8v2.5c0,0.7,0,1.3,0.1,1.7      C101.2,18.5,99.9,18.5,99.9,18.5z M99.7,15c-1.8,0-2.5,0.4-2.5,1.4c0,0.7,0.5,1.1,1.1,1.1c0.8,0,1.6-0.6,1.6-1.4L99.7,15      L99.7,15z"/>
				<path class="st0" d="M107.4,18.6c-1,0-1.7-0.4-2.2-1.2l0,0l-0.1,1.1h-1.3c0-0.6,0.1-1.2,0.1-1.9V8.3h1.6v4.2l0,0      c0.5-0.8,1.2-1.2,2.2-1.2c1.7,0,2.8,1.5,2.8,3.5C110.4,17,109.2,18.6,107.4,18.6z M107,12.6c-0.9,0-1.7,0.8-1.7,1.9v1.2      c0,1,0.7,1.8,1.7,1.8c1.2,0,1.9-1,1.9-2.4C108.9,13.5,108.1,12.6,107,12.6z"/>
				<path class="st0" d="M114.2,18.5h-1.6V8.3h1.6V18.5z"/>
				<path class="st0" d="M122.6,15.3H118c0,1.3,0.9,2.1,2.2,2.1c0.7,0,1.3-0.1,1.9-0.3l0.2,1.1c-0.7,0.3-1.5,0.5-2.3,0.5      c-2.2,0-3.4-1.4-3.4-3.5s1.3-3.7,3.3-3.7c1.8,0,2.8,1.3,2.8,3.3C122.7,15,122.7,15.1,122.6,15.3z M121.2,14.3      c0-1.1-0.5-1.9-1.5-1.9c-0.9,0-1.6,0.8-1.7,1.9H121.2z"/>
				<path class="st0" d="M131.9,18.6c-2.1,0-3.3-1.5-3.3-3.5c0-2.2,1.4-3.6,3.4-3.6c2,0,3.3,1.5,3.3,3.5      C135.4,17.1,134,18.6,131.9,18.6z M131.9,12.5c-1.1,0-1.9,1.1-1.9,2.4c0,1.5,0.7,2.4,1.8,2.4s1.9-1.1,1.9-2.4      C133.8,13.6,133,12.5,131.9,12.5z"/>
				<path class="st0" d="M143.7,18.5h-1.6v-4c0-1.2-0.5-1.9-1.4-1.9c-0.9,0-1.6,0.8-1.6,1.7v4.1h-1.6v-5c0-0.6,0-1.3-0.1-2h1.4      l0.1,1.1l0,0c0.4-0.8,1.3-1.2,2.2-1.2c1.5,0,2.4,1.1,2.4,2.9L143.7,18.5L143.7,18.5z"/>
				<path class="st0" d="M153.6,12.7H152V16c0,0.9,0.3,1.3,0.9,1.3c0.3,0,0.5,0,0.7-0.1v1.2c-0.3,0.1-0.7,0.2-1.2,0.2      c-1.2,0-2-0.7-2-2.4v-3.5h-1v-1.2h1v-1.3l1.5-0.5v1.8h1.7L153.6,12.7L153.6,12.7z"/>
				<path class="st0" d="M161.8,18.5h-1.6v-3.9c0-1.3-0.5-1.9-1.4-1.9c-0.8,0-1.6,0.6-1.6,1.7v4.2h-1.6V8.3h1.6v4.2l0,0      c0.5-0.8,1.2-1.2,2.1-1.2c1.5,0,2.3,1.2,2.3,2.9L161.8,18.5L161.8,18.5z"/>
				<path class="st0" d="M169.7,15.3h-4.6c0,1.3,0.9,2.1,2.2,2.1c0.7,0,1.3-0.1,1.9-0.3l0.2,1.1c-0.7,0.3-1.5,0.5-2.3,0.5      c-2.2,0-3.4-1.4-3.4-3.5s1.3-3.7,3.3-3.7c1.8,0,2.8,1.3,2.8,3.3C169.8,15,169.7,15.1,169.7,15.3z M168.2,14.3      c0-1.1-0.5-1.9-1.6-1.9c-0.9,0-1.6,0.8-1.7,1.9H168.2z"/>
			</g>
		</g>
	</g>
</g>
</svg>