<?xml version="1.0" encoding="UTF-8"?>
<!-- Generator: Adobe Illustrator 20.0.0, SVG Export Plug-In . SVG Version: 6.00 Build 0)  -->
<!DOCTYPE svg PUBLIC "-//W3C//DTD SVG 1.1//EN" "http://www.w3.org/Graphics/SVG/1.1/DTD/svg11.dtd">
<svg version="1.1" id="svg2" inkscape:version="0.91 r13725" sodipodi:docname="google-play-badge.svg" xmlns:cc="http://creativecommons.org/ns#" xmlns:dc="http://purl.org/dc/elements/1.1/" xmlns:inkscape="http://www.inkscape.org/namespaces/inkscape" xmlns:rdf="http://www.w3.org/1999/02/22-rdf-syntax-ns#" xmlns:sodipodi="http://sodipodi.sourceforge.net/DTD/sodipodi-0.dtd" xmlns:svg="http://www.w3.org/2000/svg" xmlns="http://www.w3.org/2000/svg" xmlns:xlink="http://www.w3.org/1999/xlink" x="0px" y="0px" viewBox="0 0 135.7 40" style="enable-background:new 0 0 135.7 40;" xml:space="preserve">
<style type="text/css">
	.st0{fill:none;}
	.st1{clip-path:url(#SVGID_2_);}
	.st2{clip-path:url(#SVGID_4_);}
	.st3{clip-path:url(#SVGID_6_);}
	.st4{clip-path:url(#SVGID_8_);}
	.st5{fill:#FFFFFF;}
	.st6{display:none;fill:#A6A6A6;}
	.st7{fill:#FFFFFF;stroke:#FFFFFF;stroke-width:0.16;stroke-miterlimit:10;}
	.st8{fill:url(#path64_1_);}
	.st9{fill:url(#path78_1_);}
	.st10{fill:url(#path88_1_);}
	.st11{fill:url(#path104_1_);}
	.st12{filter:url(#Adobe_OpacityMaskFilter);}
	.st13{clip-path:url(#SVGID_10_);fill-opacity:0.2;}
	.st14{mask:url(#mask114);}
	.st15{clip-path:url(#SVGID_12_);}
	.st16{fill:url(#path152_1_);}
	.st17{filter:url(#Adobe_OpacityMaskFilter_1_);}
	.st18{clip-path:url(#SVGID_14_);fill-opacity:0.12;}
	.st19{mask:url(#mask162);}
	.st20{clip-path:url(#SVGID_16_);}
	.st21{fill:url(#path200_1_);}
	.st22{filter:url(#Adobe_OpacityMaskFilter_2_);}
	.st23{clip-path:url(#SVGID_18_);fill-opacity:0.12;}
	.st24{mask:url(#mask210);}
	.st25{clip-path:url(#SVGID_20_);}
	.st26{fill:url(#path248_1_);}
	.st27{filter:url(#Adobe_OpacityMaskFilter_3_);}
	.st28{clip-path:url(#SVGID_22_);fill-opacity:0.25;}
	.st29{mask:url(#mask258);}
	.st30{clip-path:url(#SVGID_24_);}
	.st31{fill:url(#path296_1_);}
</style>
<pattern y="40" width="124" height="48" patternUnits="userSpaceOnUse" id="pattern134" viewBox="0 -48 124 48" style="overflow:visible;">
	<g>
		<rect y="-48" class="st0" width="124" height="48"/>
		<g id="g136_1_">
		</g>
		<g id="g138_1_">
			<g>
				<defs>
					<rect id="SVGID_1_" y="-48" width="124" height="48"/>
				</defs>
				<clipPath id="SVGID_2_">
					<use xlink:href="#SVGID_1_" style="overflow:visible;"/>
				</clipPath>
				<g id="g140_1_" class="st1">
					<g id="g142_1_">
						<path id="path144_1_" d="M29.6-20.7L18-14.1c-0.6,0.4-1.2,0.3-1.6,0L16.3-14l0.1,0.1c0.4,0.3,1,0.4,1.6,0L29.6-20.7        C29.7-20.6,29.6-20.7,29.6-20.7z"/>
					</g>
				</g>
			</g>
		</g>
	</g>
</pattern>
<pattern y="40" width="124" height="48" patternUnits="userSpaceOnUse" id="pattern182" viewBox="0 -48 124 48" style="overflow:visible;">
	<g>
		<rect y="-48" class="st0" width="124" height="48"/>
		<g id="g184_1_">
		</g>
		<g id="g186_1_">
			<g>
				<defs>
					<rect id="SVGID_3_" y="-48" width="124" height="48"/>
				</defs>
				<clipPath id="SVGID_4_">
					<use xlink:href="#SVGID_3_" style="overflow:visible;"/>
				</clipPath>
				<g id="g188_1_" class="st2">
					<g id="g190_1_">
						<path id="path192_1_" d="M16.3-14.1c-0.2-0.2-0.4-0.6-0.4-1.1v0.1c0,0.5,0.1,0.9,0.4,1.1V-14.1L16.3-14.1z"/>
					</g>
				</g>
			</g>
		</g>
	</g>
</pattern>
<pattern y="40" width="124" height="48" patternUnits="userSpaceOnUse" id="pattern230" viewBox="0 -48 124 48" style="overflow:visible;">
	<g>
		<rect y="-48" class="st0" width="124" height="48"/>
		<g id="g232_1_">
		</g>
		<g id="g234_1_">
			<g>
				<defs>
					<rect id="SVGID_5_" y="-48" width="124" height="48"/>
				</defs>
				<clipPath id="SVGID_6_">
					<use xlink:href="#SVGID_5_" style="overflow:visible;"/>
				</clipPath>
				<g id="g236_1_" class="st3">
					<g id="g238_1_">
						<path id="path240_1_" d="M33.6-23l-4,2.3l0.1,0.1l3.9-2.2c0.6-0.3,0.8-0.7,0.8-1.2C34.4-23.6,34.1-23.2,33.6-23z"/>
					</g>
				</g>
			</g>
		</g>
	</g>
</pattern>
<pattern y="40" width="124" height="48" patternUnits="userSpaceOnUse" id="pattern278" viewBox="0 -48 124 48" style="overflow:visible;">
	<g>
		<rect y="-48" class="st0" width="124" height="48"/>
		<g id="g280_1_">
		</g>
		<g id="g282_1_">
			<g>
				<defs>
					<rect id="SVGID_7_" y="-48" width="124" height="48"/>
				</defs>
				<clipPath id="SVGID_8_">
					<use xlink:href="#SVGID_7_" style="overflow:visible;"/>
				</clipPath>
				<g id="g284_1_" class="st4">
					<g id="g286_1_">
						<path id="path288_1_" class="st5" d="M18-33.9L33.6-25c0.5,0.3,0.8,0.7,0.8,1c0-0.4-0.3-0.8-0.8-1.2L18-34        c-1.1-0.6-2-0.1-2,1.2v0.1C16-34,16.9-34.5,18-33.9z"/>
					</g>
				</g>
			</g>
		</g>
	</g>
</pattern>
<sodipodi:namedview bordercolor="#666666" borderopacity="1" gridtolerance="10" guidetolerance="10" id="namedview4" inkscape:current-layer="g10" inkscape:cx="93.965168" inkscape:cy="29.61582" inkscape:pageopacity="0" inkscape:pageshadow="2" inkscape:window-height="705" inkscape:window-maximized="1" inkscape:window-width="1366" inkscape:window-x="-8" inkscape:window-y="-8" inkscape:zoom="7.6276974" objecttolerance="10" pagecolor="#ffffff" showgrid="false">
	</sodipodi:namedview>
<g id="g10" transform="matrix(1.25,0,0,-1.25,-9.4247625,49.85025)" inkscape:groupmode="layer" inkscape:label="google-play-badge">
	<g id="g12" transform="matrix(1.0023923,0,0,0.99072975,-0.29664807,0)">
		<path id="path14" inkscape:connector-curvature="0" d="M112,8H12c-2.2,0-4,1.8-4,4v24c0,2.2,1.8,4,4,4h100c2.2,0,4-1.8,4-4V12    C116,9.8,114.2,8,112,8z"/>
		<path id="path16" inkscape:connector-curvature="0" class="st6" d="M112,39.4c1.9,0,3.4-1.5,3.4-3.4V12c0-1.9-1.5-3.4-3.4-3.4H12    c-1.9,0-3.4,1.5-3.4,3.4v24c0,1.9,1.5,3.4,3.4,3.4H112 M112,40H12c-2.2,0-4-1.8-4-4V12c0-2.2,1.8-4,4-4h100c2.2,0,4,1.8,4,4v24    C116,38.2,114.2,40,112,40z"/>
		<g id="g18" transform="matrix(1,0,0,-1,0,48)">
			<path id="path20" inkscape:connector-curvature="0" class="st7" d="M45.9,16.2c0,0.7-0.2,1.2-0.6,1.6c-0.5,0.5-1,0.7-1.8,0.7     c-0.7,0-1.3-0.2-1.8-0.7c-0.5-0.5-0.7-1.1-0.7-1.8c0-0.7,0.2-1.3,0.7-1.8c0.5-0.5,1.1-0.7,1.8-0.7c0.3,0,0.7,0.1,1,0.2     c0.3,0.1,0.6,0.3,0.8,0.5l-0.4,0.4c-0.3-0.4-0.8-0.6-1.3-0.6c-0.5,0-0.9,0.2-1.3,0.5c-0.4,0.4-0.6,0.8-0.6,1.4     c0,0.6,0.2,1,0.6,1.4c0.4,0.4,0.8,0.5,1.3,0.5c0.5,0,1-0.2,1.3-0.5c0.2-0.2,0.4-0.6,0.4-1h-1.7v-0.6h2.3     C45.9,16,45.9,16.1,45.9,16.2z"/>
		</g>
		<g id="g22" transform="matrix(1,0,0,-1,0,48)">
			<path id="path24" inkscape:connector-curvature="0" class="st7" d="M49.6,14.2h-2.2v1.5h2v0.6h-2v1.5h2.2v0.6h-2.8v-4.8h2.8     C49.6,13.6,49.6,14.2,49.6,14.2z"/>
		</g>
		<g id="g26" transform="matrix(1,0,0,-1,0,48)">
			<path id="path28" inkscape:connector-curvature="0" class="st7" d="M52.2,18.4h-0.6v-4.2h-1.3v-0.6h3.3v0.6h-1.3V18.4z"/>
		</g>
		<g id="g30" transform="matrix(1,0,0,-1,0,48)">
			<path id="path32" inkscape:connector-curvature="0" class="st7" d="M55.9,18.4v-4.8h0.6v4.8H55.9z"/>
		</g>
		<g id="g34" transform="matrix(1,0,0,-1,0,48)">
			<path id="path36" inkscape:connector-curvature="0" class="st7" d="M59.3,18.4h-0.6v-4.2h-1.3v-0.6h3.3v0.6h-1.3     C59.3,14.2,59.3,18.4,59.3,18.4z"/>
		</g>
		<g id="g38" transform="matrix(1,0,0,-1,0,48)">
			<path id="path40" inkscape:connector-curvature="0" class="st7" d="M66.9,17.8c-0.5,0.5-1.1,0.7-1.8,0.7c-0.7,0-1.3-0.2-1.8-0.7     c-0.5-0.5-0.7-1.1-0.7-1.8s0.2-1.3,0.7-1.8c0.5-0.5,1.1-0.7,1.8-0.7c0.7,0,1.3,0.2,1.8,0.7c0.5,0.5,0.7,1.1,0.7,1.8     C67.6,16.7,67.4,17.3,66.9,17.8z M63.8,17.4c0.4,0.4,0.8,0.5,1.3,0.5c0.5,0,0.9-0.2,1.3-0.5C66.8,17,67,16.6,67,16     c0-0.6-0.2-1-0.5-1.4c-0.4-0.4-0.8-0.5-1.3-0.5c-0.5,0-0.9,0.2-1.3,0.5c-0.4,0.4-0.5,0.8-0.5,1.4C63.3,16.6,63.5,17,63.8,17.4z"/>
		</g>
		<g id="g42" transform="matrix(1,0,0,-1,0,48)">
			<path id="path44" inkscape:connector-curvature="0" class="st7" d="M68.5,18.4v-4.8h0.8l2.3,3.7h0l0-0.9v-2.8h0.6v4.8h-0.6     l-2.4-3.9h0l0,0.9v3C69.1,18.4,68.5,18.4,68.5,18.4z"/>
		</g>
		<path id="path46" inkscape:connector-curvature="0" class="st5" d="M62.5,22.6c-1.9,0-3.4-1.4-3.4-3.4c0-2,1.5-3.4,3.4-3.4    c1.9,0,3.4,1.4,3.4,3.4C65.9,21.2,64.4,22.6,62.5,22.6z M62.5,17.1c-1,0-1.9,0.9-1.9,2.1c0,1.2,0.9,2.1,1.9,2.1s1.9-0.8,1.9-2.1    C64.4,18,63.5,17.1,62.5,17.1z M55.1,22.6c-1.9,0-3.4-1.4-3.4-3.4c0-2,1.5-3.4,3.4-3.4c1.9,0,3.4,1.4,3.4,3.4    C58.5,21.2,56.9,22.6,55.1,22.6z M55.1,17.1c-1,0-1.9,0.9-1.9,2.1c0,1.2,0.9,2.1,1.9,2.1c1,0,1.9-0.8,1.9-2.1    C57,18,56.1,17.1,55.1,17.1z M46.2,21.6v-1.4h3.5c-0.1-0.8-0.4-1.4-0.8-1.8c-0.5-0.5-1.3-1.1-2.7-1.1c-2.1,0-3.8,1.7-3.8,3.8    s1.7,3.8,3.8,3.8c1.1,0,2-0.4,2.6-1l1,1c-0.9,0.8-2,1.5-3.6,1.5c-2.9,0-5.4-2.4-5.4-5.3s2.4-5.3,5.4-5.3c1.6,0,2.8,0.5,3.7,1.5    c1,1,1.2,2.3,1.2,3.4c0,0.3,0,0.6-0.1,0.9C51.1,21.6,46.2,21.6,46.2,21.6z M82.4,20.4c-0.3,0.8-1.1,2.2-2.9,2.2    c-1.8,0-3.2-1.4-3.2-3.4c0-1.9,1.4-3.4,3.4-3.4c1.6,0,2.5,1,2.8,1.5l-1.2,0.8c-0.4-0.6-0.9-0.9-1.7-0.9c-0.8,0-1.3,0.3-1.6,1    l4.6,1.9C82.6,20,82.4,20.4,82.4,20.4z M77.8,19.3c0,1.3,1,2,1.8,2c0.6,0,1.1-0.3,1.3-0.7C80.8,20.6,77.8,19.3,77.8,19.3z     M74.1,16h1.5v10h-1.5V16z M71.7,21.8L71.7,21.8c-0.4,0.4-1,0.8-1.8,0.8c-1.7,0-3.3-1.5-3.3-3.4c0-1.9,1.6-3.4,3.3-3.4    c0.8,0,1.5,0.4,1.8,0.8h0.1v-0.5c0-1.3-0.7-2-1.8-2c-0.9,0-1.5,0.7-1.7,1.2l-1.3-0.5c0.4-0.9,1.4-2,3-2c1.8,0,3.2,1,3.2,3.5v6.1    h-1.4V21.8z M69.9,17.1c-1,0-1.9,0.9-1.9,2.1c0,1.2,0.9,2.1,1.9,2.1c1,0,1.8-0.9,1.8-2.1C71.8,18,71,17.1,69.9,17.1z M89.4,26    h-3.6V16h1.5v3.8h2.1c1.7,0,3.3,1.2,3.3,3.1C92.7,24.8,91.1,26,89.4,26z M89.5,21.2h-2.1v3.4h2.1c1.1,0,1.8-0.9,1.8-1.7    C91.2,22.1,90.6,21.2,89.5,21.2z M98.7,22.6c-1.1,0-2.2-0.5-2.7-1.5l1.3-0.6c0.3,0.6,0.8,0.7,1.4,0.7c0.8,0,1.6-0.5,1.6-1.3v-0.1    c-0.3,0.2-0.8,0.4-1.6,0.4c-1.4,0-2.9-0.8-2.9-2.2c0-1.3,1.2-2.2,2.5-2.2c1,0,1.6,0.5,1.9,1h0.1V16h1.4v3.8    C101.7,21.6,100.4,22.6,98.7,22.6z M98.5,17.1c-0.5,0-1.2,0.2-1.2,0.8c0,0.8,0.8,1.1,1.6,1.1c0.7,0,1-0.1,1.4-0.3    C100.2,17.8,99.4,17.1,98.5,17.1z M107,22.4l-1.7-4.3h-0.1l-1.8,4.3h-1.6l2.7-6.1L103,13h1.6l4.1,9.4    C108.7,22.4,107,22.4,107,22.4z M93.5,16H95v10h-1.5V16z"/>
		<g id="g48">
			
				<linearGradient id="path64_1_" gradientUnits="userSpaceOnUse" x1="32.8475" y1="156.0893" x2="16.0651" y2="139.3069" gradientTransform="matrix(1.0024 0 0 -0.9907 -7.4871 169.6093)">
				<stop offset="0" style="stop-color:#00A0FF"/>
				<stop offset="6.599999e-03" style="stop-color:#00A1FF"/>
				<stop offset="0.2601" style="stop-color:#00BEFF"/>
				<stop offset="0.5122" style="stop-color:#00D2FF"/>
				<stop offset="0.7604" style="stop-color:#00DFFF"/>
				<stop offset="1" style="stop-color:#00E3FF"/>
			</linearGradient>
			<path id="path64" inkscape:connector-curvature="0" class="st8" d="M16.3,34c-0.2-0.2-0.4-0.6-0.4-1.1V15.2     c0-0.5,0.1-0.9,0.4-1.1l0.1-0.1l9.9,9.9v0.2L16.3,34L16.3,34z"/>
		</g>
		<g id="g66">
			
				<linearGradient id="path78_1_" gradientUnits="userSpaceOnUse" x1="42.453" y1="146.9718" x2="18.2561" y2="146.9718" gradientTransform="matrix(1.0024 0 0 -0.9907 -7.4871 169.6093)">
				<stop offset="0" style="stop-color:#FFE000"/>
				<stop offset="0.4087" style="stop-color:#FFBD00"/>
				<stop offset="0.7754" style="stop-color:#FFA500"/>
				<stop offset="1" style="stop-color:#FF9C00"/>
			</linearGradient>
			<path id="path78" inkscape:connector-curvature="0" class="st9" d="M29.6,20.6l-3.3,3.3v0.2l3.3,3.3l0.1,0l3.9-2.2     c1.1-0.6,1.1-1.7,0-2.3L29.6,20.6C29.7,20.6,29.6,20.6,29.6,20.6z"/>
		</g>
		<g id="g80">
			
				<linearGradient id="path88_1_" gradientUnits="userSpaceOnUse" x1="28.6046" y1="151.8558" x2="5.8463" y2="129.0975" gradientTransform="matrix(1.0024 0 0 -0.9907 -7.4871 169.6093)">
				<stop offset="0" style="stop-color:#FF3A44"/>
				<stop offset="1" style="stop-color:#C31162"/>
			</linearGradient>
			<path id="path88" inkscape:connector-curvature="0" class="st10" d="M29.7,20.6L26.3,24l-10-10c0.4-0.4,1-0.4,1.7,0L29.7,20.6"/>
		</g>
		<g id="g90">
			
				<linearGradient id="path104_1_" gradientUnits="userSpaceOnUse" x1="14.6161" y1="156.2429" x2="24.7787" y2="146.0804" gradientTransform="matrix(1.0024 0 0 -0.9907 -7.4871 169.6093)">
				<stop offset="0" style="stop-color:#32A071"/>
				<stop offset="6.850000e-02" style="stop-color:#2DA771"/>
				<stop offset="0.4762" style="stop-color:#15CF74"/>
				<stop offset="0.8009" style="stop-color:#06E775"/>
				<stop offset="1" style="stop-color:#00F076"/>
			</linearGradient>
			<path id="path104" inkscape:connector-curvature="0" class="st11" d="M29.7,27.4L18,34c-0.7,0.4-1.3,0.3-1.7-0.1l10-10L29.7,27.4     z"/>
		</g>
		<g id="g106">
			<g id="g108">
			</g>
			<defs>
				<filter id="Adobe_OpacityMaskFilter" filterUnits="userSpaceOnUse" x="0" y="-48" width="124" height="48">
					<feColorMatrix type="matrix" values="1 0 0 0 0  0 1 0 0 0  0 0 1 0 0  0 0 0 1 0"/>
				</filter>
			</defs>
			<mask maskUnits="userSpaceOnUse" x="0" y="-48" width="124" height="48" id="mask114">
				<g id="g116" class="st12">
					<g>
						<defs>
							<rect id="SVGID_9_" x="-4.7" y="-3.1" width="124" height="48"/>
						</defs>
						<clipPath id="SVGID_10_">
							<use xlink:href="#SVGID_9_" style="overflow:visible;"/>
						</clipPath>
						<g id="g118">
							<path id="path120" inkscape:connector-curvature="0" class="st13" d="M7.8,40.3h99V1.5h-99V40.3z"/>
						</g>
					</g>
				</g>
			</mask>
			<g id="g122" class="st14">
				<g id="g124">
				</g>
				<g id="g146">
					<g>
						<defs>
							<rect id="SVGID_11_" x="-15.7" y="-5.7" width="155.4" height="59.4"/>
						</defs>
						<clipPath id="SVGID_12_">
							<use xlink:href="#SVGID_11_" style="overflow:visible;"/>
						</clipPath>
						<g id="g148" class="st15">
							<g id="g150">
								<pattern id="path152_1_" xlink:href="#pattern134" patternTransform="matrix(1.253 0 0 -1.2384 2072.8743 -17920.8262)">
								</pattern>
								<path id="path152" inkscape:connector-curvature="0" class="st16" d="M0,0h124v48H0V0z"/>
							</g>
						</g>
					</g>
				</g>
			</g>
		</g>
		<g id="g154">
			<g id="g156">
			</g>
			<defs>
				<filter id="Adobe_OpacityMaskFilter_1_" filterUnits="userSpaceOnUse" x="0" y="-48" width="124" height="48">
					<feColorMatrix type="matrix" values="1 0 0 0 0  0 1 0 0 0  0 0 1 0 0  0 0 0 1 0"/>
				</filter>
			</defs>
			<mask maskUnits="userSpaceOnUse" x="0" y="-48" width="124" height="48" id="mask162">
				<g id="g164" class="st17">
					<g>
						<defs>
							<rect id="SVGID_13_" x="-4.7" y="-3.1" width="124" height="48"/>
						</defs>
						<clipPath id="SVGID_14_">
							<use xlink:href="#SVGID_13_" style="overflow:visible;"/>
						</clipPath>
						<g id="g166">
							<path id="path168" inkscape:connector-curvature="0" class="st18" d="M7.8,40.3h99V1.5h-99V40.3z"/>
						</g>
					</g>
				</g>
			</mask>
			<g id="g170" class="st19">
				<g id="g172">
				</g>
				<g id="g194">
					<g>
						<defs>
							<rect id="SVGID_15_" x="-15.7" y="-5.7" width="155.4" height="59.4"/>
						</defs>
						<clipPath id="SVGID_16_">
							<use xlink:href="#SVGID_15_" style="overflow:visible;"/>
						</clipPath>
						<g id="g196" class="st20">
							<g id="g198">
								<pattern id="path200_1_" xlink:href="#pattern182" patternTransform="matrix(1.253 0 0 -1.2384 2072.8743 -17920.8262)">
								</pattern>
								<path id="path200" inkscape:connector-curvature="0" class="st21" d="M0,0h124v48H0V0z"/>
							</g>
						</g>
					</g>
				</g>
			</g>
		</g>
		<g id="g202">
			<g id="g204">
			</g>
			<defs>
				<filter id="Adobe_OpacityMaskFilter_2_" filterUnits="userSpaceOnUse" x="0" y="-48" width="124" height="48">
					<feColorMatrix type="matrix" values="1 0 0 0 0  0 1 0 0 0  0 0 1 0 0  0 0 0 1 0"/>
				</filter>
			</defs>
			<mask maskUnits="userSpaceOnUse" x="0" y="-48" width="124" height="48" id="mask210">
				<g id="g212" class="st22">
					<g>
						<defs>
							<rect id="SVGID_17_" x="-4.7" y="-3.1" width="124" height="48"/>
						</defs>
						<clipPath id="SVGID_18_">
							<use xlink:href="#SVGID_17_" style="overflow:visible;"/>
						</clipPath>
						<g id="g214">
							<path id="path216" inkscape:connector-curvature="0" class="st23" d="M7.8,40.3h99V1.5h-99V40.3z"/>
						</g>
					</g>
				</g>
			</mask>
			<g id="g218" class="st24">
				<g id="g220">
				</g>
				<g id="g242">
					<g>
						<defs>
							<rect id="SVGID_19_" x="-15.7" y="-5.7" width="155.4" height="59.4"/>
						</defs>
						<clipPath id="SVGID_20_">
							<use xlink:href="#SVGID_19_" style="overflow:visible;"/>
						</clipPath>
						<g id="g244" class="st25">
							<g id="g246">
								<pattern id="path248_1_" xlink:href="#pattern230" patternTransform="matrix(1.253 0 0 -1.2384 2072.8743 -17920.8262)">
								</pattern>
								<path id="path248" inkscape:connector-curvature="0" class="st26" d="M0,0h124v48H0V0z"/>
							</g>
						</g>
					</g>
				</g>
			</g>
		</g>
		<g id="g250">
			<g id="g252">
			</g>
			<defs>
				<filter id="Adobe_OpacityMaskFilter_3_" filterUnits="userSpaceOnUse" x="0" y="-48" width="124" height="48">
					<feColorMatrix type="matrix" values="1 0 0 0 0  0 1 0 0 0  0 0 1 0 0  0 0 0 1 0"/>
				</filter>
			</defs>
			<mask maskUnits="userSpaceOnUse" x="0" y="-48" width="124" height="48" id="mask258">
				<g id="g260" class="st27">
					<g>
						<defs>
							<rect id="SVGID_21_" x="-4.7" y="-3.1" width="124" height="48"/>
						</defs>
						<clipPath id="SVGID_22_">
							<use xlink:href="#SVGID_21_" style="overflow:visible;"/>
						</clipPath>
						<g id="g262">
							<path id="path264" inkscape:connector-curvature="0" class="st28" d="M7.8,40.3h99V1.5h-99V40.3z"/>
						</g>
					</g>
				</g>
			</mask>
			<g id="g266" class="st29">
				<g id="g268">
				</g>
				<g id="g290">
					<g>
						<defs>
							<rect id="SVGID_23_" x="-15.7" y="-5.7" width="155.4" height="59.4"/>
						</defs>
						<clipPath id="SVGID_24_">
							<use xlink:href="#SVGID_23_" style="overflow:visible;"/>
						</clipPath>
						<g id="g292" class="st30">
							<g id="g294">
								<pattern id="path296_1_" xlink:href="#pattern278" patternTransform="matrix(1.253 0 0 -1.2384 2072.8743 -17920.8262)">
								</pattern>
								<path id="path296" inkscape:connector-curvature="0" class="st31" d="M0,0h124v48H0V0z"/>
							</g>
						</g>
					</g>
				</g>
			</g>
		</g>
	</g>
</g>
</svg>